<svg width="58" height="58" viewBox="0 0 58 58" fill="none" xmlns="http://www.w3.org/2000/svg">
<rect width="58" height="58" rx="29" fill="#F5F5F5"/>
<path d="M32.7272 26.2452C32.9957 25.9767 32.9957 25.5414 32.7272 25.2729C32.4587 25.0044 32.0234 25.0044 31.755 25.2729L29.0002 28.0277L26.2454 25.2729C25.9769 25.0044 25.5416 25.0044 25.2731 25.2729C25.0047 25.5414 25.0047 25.9767 25.2731 26.2452L28.0279 28.9999L25.2731 31.7547C25.0047 32.0232 25.0047 32.4585 25.2731 32.727C25.5416 32.9955 25.9769 32.9955 26.2454 32.727L29.0002 29.9722L31.755 32.727C32.0234 32.9955 32.4587 32.9955 32.7272 32.727C32.9957 32.4585 32.9957 32.0232 32.7272 31.7547L29.9725 28.9999L32.7272 26.2452Z" fill="black"/>
</svg>
