<svg width="58" height="58" viewBox="0 0 58 58" fill="none" xmlns="http://www.w3.org/2000/svg">
<rect width="58" height="58" rx="29" fill="#F5F5F5"/>
<path d="M32.727 26.2453C32.9955 25.9768 32.9955 25.5415 32.727 25.273C32.4585 25.0045 32.0232 25.0045 31.7547 25.273L28.9999 28.0278L26.2452 25.273C25.9767 25.0045 25.5414 25.0045 25.2729 25.273C25.0044 25.5415 25.0044 25.9768 25.2729 26.2453L28.0277 29.0001L25.2729 31.7548C25.0044 32.0233 25.0044 32.4586 25.2729 32.7271C25.5414 32.9956 25.9767 32.9956 26.2452 32.7271L28.9999 29.9723L31.7547 32.7271C32.0232 32.9956 32.4585 32.9956 32.727 32.7271C32.9955 32.4586 32.9955 32.0233 32.727 31.7548L29.9722 29.0001L32.727 26.2453Z" fill="black"/>
</svg>
