<svg width="22" height="22" viewBox="0 0 22 22" fill="none" xmlns="http://www.w3.org/2000/svg">
<path d="M10.3124 17.4166C10.3124 17.037 10.6202 16.7291 10.9999 16.7291H16.4999C16.6265 16.7291 16.7291 16.6265 16.7291 16.5L16.7291 5.49998C16.7291 5.37342 16.6265 5.27081 16.4999 5.27081L10.9999 5.27081C10.6202 5.27081 10.3124 4.96301 10.3124 4.58331C10.3124 4.20362 10.6202 3.89581 10.9999 3.89581H16.4999C17.3859 3.89581 18.1041 4.61402 18.1041 5.49998V16.5C18.1041 17.3859 17.3859 18.1041 16.4999 18.1041H10.9999C10.6202 18.1041 10.3124 17.7963 10.3124 17.4166Z" fill="white"/>
<path d="M3.20825 12.0223C3.20825 12.5285 3.61866 12.9389 4.12492 12.9389H8.57624C8.59726 13.2647 8.62357 13.5903 8.65518 13.9154L8.68237 14.1952C8.72658 14.6501 9.20962 14.9225 9.62177 14.725C11.2974 13.922 12.8142 12.8231 14.0995 11.4812L14.1269 11.4526C14.3718 11.1969 14.3718 10.7938 14.1269 10.5381L14.0995 10.5095C12.8142 9.1676 11.2974 8.06872 9.62177 7.2657C9.20962 7.06818 8.72658 7.34061 8.68237 7.7955L8.65518 8.07526C8.62357 8.40043 8.59726 8.72598 8.57624 9.05179L4.12492 9.05179C3.61866 9.05179 3.20825 9.4622 3.20825 9.96846V12.0223Z" fill="white"/>
</svg>
